<svg xmlns="http://www.w3.org/2000/svg" width="134" height="34" viewBox="0 0 134 34" fill="none">
<path d="M48.2982 29.0543C48.5499 29.0543 48.7675 29.0832 48.9536 29.1408C49.1397 29.1984 49.2918 29.2823 49.415 29.387C49.5356 29.4944 49.6273 29.6228 49.685 29.7721C49.7453 29.9241 49.7742 30.0891 49.7742 30.2725C49.7742 30.4558 49.7427 30.6235 49.6798 30.7781C49.6169 30.9326 49.5225 31.0636 49.3993 31.1736C49.2761 31.2837 49.1214 31.3701 48.9379 31.4304C48.7544 31.4906 48.542 31.522 48.3008 31.522H47.6953V32.9628H47.1133V29.0491H48.2982V29.0543ZM48.2982 31.0662C48.445 31.0662 48.5761 31.0479 48.6862 31.0086C48.7989 30.9693 48.8907 30.9169 48.9667 30.8462C49.0427 30.7754 49.0978 30.6916 49.1371 30.5947C49.1764 30.4978 49.1948 30.3904 49.1948 30.2725C49.1948 30.0341 49.1214 29.8481 48.972 29.7119C48.8225 29.5756 48.5997 29.5075 48.2982 29.5075H47.6926V31.0662H48.2982Z" fill="#070F1A"/>
<path d="M55.0255 31.0112C55.0255 31.3046 54.9783 31.5718 54.8839 31.8154C54.7895 32.0591 54.6584 32.2712 54.488 32.4468C54.3176 32.6249 54.1132 32.7611 53.8746 32.8607C53.636 32.9576 53.3713 33.0074 53.0803 33.0074C52.7919 33.0074 52.5271 32.9576 52.2886 32.8607C52.05 32.7637 51.8455 32.6249 51.6751 32.4468C51.5047 32.2686 51.3736 32.0591 51.2793 31.8154C51.1849 31.5718 51.1377 31.302 51.1377 31.0112C51.1377 30.7204 51.1849 30.4532 51.2793 30.207C51.3736 29.9607 51.5073 29.7512 51.6751 29.573C51.8455 29.3949 52.05 29.2587 52.2886 29.1591C52.5271 29.0596 52.7919 29.0098 53.0803 29.0098C53.3713 29.0098 53.636 29.0596 53.8746 29.1591C54.1132 29.2587 54.3176 29.3975 54.488 29.573C54.6584 29.7512 54.7921 29.9607 54.8839 30.207C54.9783 30.4506 55.0255 30.7204 55.0255 31.0112ZM54.433 31.0112C54.433 30.778 54.4015 30.5711 54.3386 30.3851C54.2757 30.1991 54.1839 30.0419 54.0686 29.9136C53.9506 29.7852 53.8091 29.6857 53.6439 29.6176C53.4787 29.5494 53.2926 29.5154 53.0855 29.5154C52.8784 29.5154 52.6949 29.5494 52.5271 29.6176C52.362 29.6857 52.2178 29.7852 52.0998 29.9136C51.9818 30.0419 51.8901 30.1991 51.8272 30.3851C51.7642 30.5711 51.7328 30.778 51.7328 31.0112C51.7328 31.2443 51.7642 31.4539 51.8272 31.6399C51.8901 31.8233 51.9818 31.9805 52.0998 32.1088C52.2178 32.2372 52.3593 32.3367 52.5271 32.4048C52.6923 32.473 52.8784 32.507 53.0855 32.507C53.2926 32.507 53.4761 32.473 53.6439 32.4048C53.8091 32.3367 53.9532 32.2372 54.0686 32.1088C54.1866 31.9805 54.2757 31.8233 54.3386 31.6399C54.3989 31.4539 54.433 31.2443 54.433 31.0112Z" fill="#070F1A"/>
<path d="M61.7677 29.0544L60.5461 32.9681H60.0218L59.0675 30.0656C59.0466 30.0079 59.0256 29.9372 59.0099 29.856C58.9889 29.9398 58.9705 30.0105 58.9522 30.0656L57.9875 32.9681H57.4658L56.2441 29.0544H56.7291C56.7789 29.0544 56.8235 29.0675 56.8576 29.0911C56.8917 29.1146 56.9153 29.1487 56.9257 29.1906L57.6965 31.8102C57.7122 31.86 57.7253 31.9176 57.7358 31.9753C57.7489 32.0355 57.7594 32.0984 57.7725 32.1639C57.7856 32.0984 57.7987 32.0355 57.8118 31.9753C57.8249 31.915 57.8407 31.86 57.859 31.8102L58.7425 29.1906C58.753 29.1539 58.7766 29.1225 58.8133 29.0963C58.85 29.0701 58.8919 29.0544 58.9391 29.0544H59.1042C59.1541 29.0544 59.196 29.0675 59.2301 29.0937C59.2615 29.1199 59.2851 29.1513 59.3009 29.1906L60.1817 31.8102C60.2132 31.9098 60.2446 32.0224 60.2682 32.1508C60.2892 32.025 60.3128 31.9124 60.339 31.8102L61.1123 29.1906C61.1202 29.1539 61.1438 29.1225 61.1805 29.0963C61.2172 29.0701 61.2592 29.0544 61.309 29.0544H61.7677Z" fill="#070F1A"/>
<path d="M65.7212 32.494L65.7186 32.9655H63.291V29.0518H65.7186V29.5233H63.8756V30.7624H65.3594V31.2182H63.8756V32.494H65.7212Z" fill="#070F1A"/>
<path d="M70.3378 32.9655H69.8188C69.7165 32.9655 69.6405 32.9236 69.5933 32.8424L68.6259 31.4854C68.5945 31.4409 68.5604 31.4068 68.5263 31.3885C68.4896 31.3701 68.4346 31.3597 68.3638 31.3597H67.9837V32.9655H67.4043V29.0518H68.5342C68.7859 29.0518 69.0034 29.078 69.187 29.1303C69.3705 29.1827 69.5199 29.2561 69.6405 29.3504C69.7585 29.4447 69.8476 29.56 69.9053 29.6962C69.9629 29.8298 69.9918 29.9817 69.9918 30.1494C69.9918 30.2856 69.9708 30.414 69.9289 30.5345C69.8869 30.655 69.8266 30.7624 69.7453 30.8567C69.6641 30.951 69.5671 31.0348 69.4491 31.1029C69.3338 31.171 69.2001 31.2234 69.0533 31.2601C69.1267 31.3046 69.1896 31.3649 69.242 31.4435L70.3378 32.9655ZM68.5132 30.9405C68.6626 30.9405 68.7937 30.9222 68.9064 30.8855C69.0192 30.8488 69.1162 30.7991 69.1922 30.7309C69.2682 30.6655 69.3259 30.5842 69.3652 30.4926C69.4045 30.4009 69.4229 30.2987 69.4229 30.1887C69.4229 29.9634 69.3495 29.7931 69.2001 29.6778C69.0506 29.5626 68.8304 29.5076 68.5342 29.5076H67.9863V30.9379H68.5132V30.9405Z" fill="#070F1A"/>
<path d="M76.6528 29.539H75.4102V32.9655H74.8309V29.539H73.583V29.0544H76.6528V29.539Z" fill="#070F1A"/>
<path d="M81.668 31.0112C81.668 31.3046 81.6208 31.5718 81.5265 31.8154C81.4321 32.0591 81.301 32.2712 81.1306 32.4468C80.9602 32.6249 80.7557 32.7611 80.5172 32.8607C80.2786 32.9576 80.0138 33.0074 79.7228 33.0074C79.4345 33.0074 79.1697 32.9576 78.9311 32.8607C78.6926 32.7637 78.4881 32.6249 78.3177 32.4468C78.1473 32.2686 78.0162 32.0591 77.9218 31.8154C77.8275 31.5718 77.7803 31.302 77.7803 31.0112C77.7803 30.7204 77.8275 30.4532 77.9218 30.207C78.0162 29.9607 78.1499 29.7512 78.3177 29.573C78.4881 29.3949 78.6926 29.2587 78.9311 29.1591C79.1697 29.0596 79.4345 29.0098 79.7228 29.0098C80.0138 29.0098 80.2786 29.0596 80.5172 29.1591C80.7557 29.2587 80.9602 29.3975 81.1306 29.573C81.301 29.7512 81.4347 29.9607 81.5265 30.207C81.6208 30.4506 81.668 30.7204 81.668 31.0112ZM81.0729 31.0112C81.0729 30.778 81.0415 30.5711 80.9786 30.3851C80.9156 30.1991 80.8239 30.0419 80.7085 29.9136C80.5906 29.7852 80.449 29.6857 80.2838 29.6176C80.1161 29.5494 79.9326 29.5154 79.7255 29.5154C79.521 29.5154 79.3348 29.5494 79.1671 29.6176C79.0019 29.6857 78.8577 29.7852 78.7398 29.9136C78.6218 30.0419 78.53 30.1991 78.4671 30.3851C78.4042 30.5711 78.3727 30.778 78.3727 31.0112C78.3727 31.2443 78.4042 31.4539 78.4671 31.6399C78.53 31.8233 78.6218 31.9805 78.7398 32.1088C78.8577 32.2372 78.9993 32.3367 79.1671 32.4048C79.3322 32.473 79.5184 32.507 79.7255 32.507C79.9299 32.507 80.1161 32.473 80.2838 32.4048C80.449 32.3367 80.5932 32.2372 80.7085 32.1088C80.8265 31.9805 80.9156 31.8233 80.9786 31.6399C81.0415 31.4539 81.0729 31.2443 81.0729 31.0112Z" fill="#070F1A"/>
<path d="M88.4393 32.1272C88.4708 32.1272 88.4996 32.1403 88.5232 32.1665L88.7513 32.418C88.5914 32.6066 88.3974 32.7533 88.1667 32.8555C87.936 32.9602 87.6607 33.01 87.3356 33.01C87.0525 33.01 86.7956 32.9602 86.5649 32.8633C86.3342 32.7664 86.1376 32.6275 85.9751 32.452C85.8125 32.2765 85.6867 32.0643 85.5976 31.8207C85.5084 31.5745 85.4639 31.3046 85.4639 31.0112C85.4639 30.7178 85.5111 30.448 85.6054 30.2018C85.6998 29.9555 85.8309 29.7459 85.9987 29.5704C86.1664 29.3949 86.3709 29.2561 86.6042 29.1592C86.8402 29.0622 87.0997 29.0125 87.3854 29.0125C87.6633 29.0125 87.9098 29.057 88.1273 29.1487C88.3449 29.2404 88.5311 29.3609 88.691 29.5102L88.4996 29.78C88.4865 29.801 88.4708 29.8167 88.4524 29.8298C88.4341 29.8429 88.4078 29.8481 88.3764 29.8481C88.3423 29.8481 88.3004 29.8298 88.2558 29.7957C88.2086 29.7617 88.1483 29.7224 88.0723 29.6805C87.9963 29.6385 87.9045 29.5992 87.7918 29.5652C87.6817 29.5311 87.5427 29.5128 87.3776 29.5128C87.1836 29.5128 87.0053 29.5469 86.8428 29.615C86.6803 29.6831 86.5413 29.78 86.4233 29.9084C86.3054 30.0367 86.2162 30.1939 86.1507 30.3799C86.0852 30.5659 86.0537 30.7755 86.0537 31.0112C86.0537 31.2496 86.0878 31.4618 86.1533 31.6452C86.2215 31.8312 86.3132 31.9884 86.4312 32.1167C86.5492 32.2451 86.6881 32.3446 86.848 32.4101C87.0079 32.4782 87.181 32.5097 87.3671 32.5097C87.4798 32.5097 87.5821 32.5018 87.6712 32.4887C87.7603 32.4756 87.8442 32.4547 87.9202 32.4285C87.9963 32.4023 88.067 32.3656 88.1352 32.3237C88.2034 32.2818 88.2689 32.2294 88.3344 32.1691C88.3502 32.156 88.3633 32.1455 88.3816 32.1377C88.4026 32.1324 88.421 32.1272 88.4393 32.1272Z" fill="#070F1A"/>
<path d="M93.5096 29.0544V32.9681H92.9276V31.2051H90.8854V32.9681H90.3008V29.0544H90.8854V30.7807H92.9276V29.0544H93.5096Z" fill="#070F1A"/>
<path d="M98.6717 32.9655H98.2234C98.1736 32.9655 98.1317 32.9524 98.0976 32.9262C98.0661 32.9 98.0425 32.8686 98.0268 32.8293L97.6808 31.9229H95.9558L95.6097 32.8293C95.5966 32.8633 95.573 32.8948 95.539 32.9236C95.5049 32.9524 95.4629 32.9655 95.4131 32.9655H94.9648L96.5247 29.0518H97.1119L98.6717 32.9655ZM97.5235 31.509L96.9415 29.9922C96.8995 29.89 96.8576 29.7591 96.8157 29.5993C96.7947 29.6778 96.7763 29.7512 96.7554 29.8167C96.7344 29.8848 96.7134 29.9424 96.6951 29.9974L96.1183 31.509H97.5235Z" fill="#070F1A"/>
<path d="M103.33 29.0544V32.9681H103.037C102.992 32.9681 102.953 32.9603 102.924 32.9445C102.892 32.9288 102.864 32.9026 102.832 32.8659L100.619 30.0079C100.622 30.0577 100.627 30.1049 100.63 30.152C100.633 30.1992 100.633 30.2437 100.633 30.2856V32.9707H100.124V29.057H100.423C100.473 29.057 100.512 29.0622 100.538 29.0753C100.564 29.0884 100.591 29.1146 100.622 29.1565L102.84 32.0172C102.835 31.9648 102.829 31.9124 102.827 31.8626C102.824 31.8129 102.824 31.7657 102.824 31.7212V29.057H103.33V29.0544Z" fill="#070F1A"/>
<path d="M108.46 31.061V32.5856C108.261 32.7271 108.051 32.8318 107.828 32.9026C107.606 32.9733 107.362 33.0074 107.097 33.0074C106.78 33.0074 106.494 32.9576 106.24 32.8607C105.986 32.7637 105.768 32.6249 105.587 32.4494C105.406 32.2739 105.267 32.0617 105.17 31.818C105.073 31.5718 105.023 31.302 105.023 31.0086C105.023 30.7126 105.071 30.4427 105.165 30.1965C105.259 29.9502 105.393 29.7407 105.566 29.5652C105.742 29.3896 105.951 29.2534 106.201 29.1565C106.45 29.0596 106.727 29.0098 107.037 29.0098C107.194 29.0098 107.338 29.0229 107.472 29.0465C107.606 29.07 107.729 29.1041 107.844 29.146C107.96 29.1906 108.064 29.2429 108.161 29.3032C108.258 29.3634 108.35 29.4316 108.431 29.5101L108.266 29.7721C108.24 29.814 108.206 29.8402 108.167 29.8507C108.125 29.8612 108.08 29.8507 108.03 29.8219C107.983 29.7957 107.931 29.7616 107.873 29.7276C107.815 29.6909 107.747 29.6568 107.669 29.628C107.59 29.5966 107.498 29.5704 107.391 29.5494C107.286 29.5285 107.16 29.518 107.018 29.518C106.803 29.518 106.609 29.5521 106.436 29.6228C106.263 29.6935 106.117 29.7931 105.996 29.924C105.875 30.055 105.781 30.2122 105.716 30.3956C105.65 30.579 105.619 30.7859 105.619 31.0164C105.619 31.2574 105.653 31.4723 105.721 31.6609C105.789 31.8495 105.889 32.0119 106.014 32.1429C106.14 32.2739 106.295 32.376 106.476 32.4441C106.657 32.5122 106.859 32.5463 107.081 32.5463C107.168 32.5463 107.249 32.5411 107.325 32.5306C107.401 32.5201 107.472 32.507 107.543 32.4887C107.611 32.4703 107.679 32.4468 107.742 32.4206C107.808 32.3944 107.87 32.3629 107.933 32.3315V31.5115H107.354C107.317 31.5115 107.288 31.5011 107.265 31.4801C107.241 31.4592 107.231 31.4303 107.231 31.3989V31.0688H108.46V31.061Z" fill="#070F1A"/>
<path d="M112.636 32.494L112.634 32.9655H110.206V29.0518H112.634V29.5233H110.791V30.7624H112.274V31.2182H110.791V32.494H112.636Z" fill="#070F1A"/>
<path d="M117.491 32.9654H116.563V28.9967H117.491V32.9654Z" fill="#070F1A"/>
<path d="M122.079 29.7276H120.962V32.9681H120.04V29.7276H118.923V28.9967H122.079V29.7276Z" fill="#070F1A"/>
<path d="M24.5106 19.752C22.9744 19.7573 21.4749 19.7599 19.9491 19.7651C19.9386 15.4454 19.9255 11.1256 19.915 6.77962C21.3595 6.777 22.8118 6.77176 24.2956 6.76914C24.2956 7.22758 24.2983 7.69649 24.2983 8.14183C24.6417 7.82485 24.9589 7.4843 25.3259 7.204C26.5082 6.30547 27.8085 6.15615 29.1874 6.67745C29.2687 6.70889 29.3657 6.84773 29.3605 6.93156C29.2687 8.20208 29.1639 9.4726 29.059 10.7431C29.0511 10.8531 29.0223 10.9632 29.0013 11.0889C28.6107 11.0077 28.2437 10.8846 27.8688 10.8662C27.3681 10.8401 26.8438 10.8217 26.3614 10.9317C25.3836 11.157 24.8855 11.8984 24.6863 12.8205C24.5604 13.3994 24.5132 14.0046 24.5054 14.5966C24.4844 16.1789 24.5054 17.7585 24.5106 19.3408C24.5106 19.4691 24.5106 19.6027 24.5106 19.752Z" fill="#070F1A"/>
<path d="M12.8867 6.78483C14.4125 6.77959 15.9225 6.77697 17.4613 6.77173C17.4718 11.0967 17.4849 15.4139 17.4954 19.7573C15.9854 19.7625 14.4675 19.7651 12.9208 19.7704C12.9103 15.4663 12.8998 11.1465 12.8867 6.78483Z" fill="#070F1A"/>
<path d="M72.3775 7.58908C70.4428 6.0042 67.2261 5.76058 65.1892 7.42404C65.142 7.46072 65.0817 7.48168 64.9847 7.53145C64.9847 7.20923 64.9821 6.93155 64.9821 6.65649C63.4563 6.66173 61.9594 6.66435 60.4678 6.66959C60.4835 12.7995 60.5019 18.9033 60.5176 25.0096C62.0591 25.0044 63.5769 25.0018 65.1158 24.9965C65.1105 22.9323 65.1053 20.8916 65.1 18.7775C66.0019 19.4848 66.9509 19.8673 68.01 19.9485C70.1072 20.1057 71.8741 19.4167 73.2399 17.8083C74.3646 16.4827 74.8679 14.9188 74.8732 13.1925C74.8784 10.9527 74.1418 9.03774 72.3775 7.58908ZM67.6377 15.7571C66.1067 15.744 65.0607 14.6699 65.0345 13.1427C65.0083 11.7019 66.1618 10.5728 67.6036 10.5676C69.0664 10.5624 70.1675 11.6574 70.1806 13.1244C70.1937 14.6045 69.1005 15.7676 67.6377 15.7571Z" fill="#070F1A"/>
<path d="M86.7746 6.74291C86.7746 7.11228 86.7746 7.46855 86.7746 7.77243C87.3828 7.42402 87.949 6.9813 88.5913 6.75077C90.644 6.01728 92.5997 6.33687 94.3063 7.66765C96.3825 9.28658 97.0773 11.5159 96.8282 14.0753C96.6709 15.6968 96.026 17.1062 94.8804 18.2772C92.8303 20.3781 89.2152 20.7187 87.021 18.8037C86.9869 18.7749 86.9476 18.7539 86.8663 18.7015C86.8663 20.8365 86.8663 22.9375 86.8663 25.0646C85.4481 25.0646 84.0692 25.0646 82.6719 25.0646C82.6719 18.9583 82.6719 12.865 82.6719 6.74291C84.0246 6.74291 85.3694 6.74291 86.7746 6.74291ZM89.7448 10.2611C88.0618 10.248 86.7877 11.5211 86.7798 13.2317C86.7746 14.8978 87.9674 16.2548 89.7448 16.2365C91.4436 16.2181 92.6311 15.0026 92.6337 13.2317C92.6364 11.5159 91.4436 10.3004 89.7448 10.2611Z" fill="#070F1A"/>
<path d="M115.546 6.32379C117.355 6.35785 118.999 6.86082 120.365 8.07633C121.864 9.40972 122.569 11.1125 122.614 13.106C122.679 15.9326 121.209 18.382 118.608 19.4534C115.9 20.5667 113.258 20.3415 110.896 18.5234C109.391 17.3655 108.636 15.7466 108.481 13.8605C108.332 12.0503 108.754 10.3921 109.884 8.94866C110.99 7.53406 112.463 6.73245 114.228 6.45215C114.663 6.38142 115.106 6.36309 115.546 6.32379ZM118.461 13.2056C118.472 11.5709 117.172 10.2559 115.536 10.2611C113.918 10.2663 112.626 11.4845 112.602 13.203C112.581 14.869 113.9 16.192 115.53 16.192C117.174 16.1893 118.451 14.89 118.461 13.2056Z" fill="#070F1A"/>
<path d="M102.892 6.73772C102.892 7.24331 102.892 7.71746 102.892 8.25187C103.118 7.99253 103.299 7.76986 103.495 7.56029C104.528 6.45742 106.29 6.05662 107.695 6.6015C107.839 6.65651 108.01 6.68795 107.962 6.9211C107.931 7.07565 107.947 7.23807 107.933 7.39525C107.839 8.47716 107.745 9.56169 107.653 10.6148C107.139 10.5362 106.638 10.4183 106.135 10.3947C104.47 10.3161 103.461 11.1335 103.175 12.7891C103.089 13.2894 103.052 13.8029 103.05 14.3111C103.034 15.9798 103.044 17.6485 103.044 19.3172C103.044 19.4403 103.044 19.5634 103.044 19.7101C101.663 19.7101 100.305 19.7101 98.918 19.7101C98.918 15.3956 98.918 11.0785 98.918 6.73772C100.229 6.73772 101.54 6.73772 102.892 6.73772Z" fill="#070F1A"/>
<path d="M78.3233 15.6392C79.5449 15.6418 80.5254 16.6216 80.5254 17.845C80.5254 19.1102 79.5292 20.1267 78.2997 20.1083C76.9968 20.09 76.0059 19.0971 76.0137 17.8214C76.0242 16.598 77.0414 15.6392 78.3233 15.6392Z" fill="#070F1A"/>
<path d="M45.7715 6.70626C47.3234 6.70626 48.8334 6.70626 50.3959 6.70626C50.3959 6.8451 50.4038 7.74102 50.4038 7.86938C50.4038 10.0934 50.4011 12.3201 50.4064 14.5442C50.4064 14.7905 50.4247 15.0446 50.4798 15.2829C50.6764 16.1448 51.4419 16.6792 52.3463 16.6085C53.3137 16.5351 53.9612 15.9038 54.0346 14.9476C54.0556 14.6542 54.0451 14.3608 54.0451 14.0674C54.0451 12.0005 54.0451 9.93365 54.0451 7.86676C54.0451 7.74364 54.0451 6.85034 54.0451 6.70364C55.5865 6.70364 57.1044 6.70364 58.6433 6.70364C58.6511 6.78485 58.6433 7.63361 58.6433 7.70958C58.6433 10.172 58.6852 12.6345 58.6485 15.097C58.6249 16.6294 58.1635 18.0309 57.0415 19.139C56.1869 19.9826 55.1304 20.441 53.9612 20.648C52.3542 20.9335 50.7708 20.8785 49.2319 20.2864C47.4571 19.6027 46.3902 18.2981 45.9917 16.467C45.8501 15.8121 45.7951 15.1258 45.7898 14.4525C45.7662 12.2625 45.7793 10.0699 45.7793 7.87986C45.7793 7.75936 45.7715 6.8713 45.7715 6.70626Z" fill="#070F1A"/>
<path d="M124.308 7.34283V9.91531C124.308 9.91531 124.903 9.91269 125.576 9.92579C126.069 9.93627 126.368 9.95199 126.691 10.3764C127.042 10.84 126.9 11.9141 126.9 13.0143C126.9 14.7931 126.9 17.0276 126.9 17.0276C126.9 17.0276 126.596 20.1266 128.628 20.1266C130.662 20.1266 131.323 20.1266 131.323 20.1266C131.323 20.1266 129.85 19.6525 129.85 17.7847C129.85 17.2739 129.85 9.96247 129.85 9.96247C129.85 9.96247 130.23 7.37165 127.571 7.37165C125.946 7.37427 124.308 7.34283 124.308 7.34283Z" fill="#F5D43D"/>
<path d="M126.947 32.9131V30.3406C126.947 30.3406 127.542 30.3432 128.216 30.3301C128.709 30.3196 129.008 30.3039 129.33 29.8795C129.682 29.4158 129.54 28.3418 129.54 27.2415C129.54 25.4628 129.54 23.2283 129.54 23.2283C129.54 23.2283 129.236 20.1292 131.268 20.1292C133.302 20.1292 133.963 20.1292 133.963 20.1292C133.963 20.1292 132.489 20.6034 132.489 22.4712C132.489 22.982 132.489 30.2934 132.489 30.2934C132.489 30.2934 132.869 32.8842 130.211 32.8842C128.583 32.8816 126.947 32.9131 126.947 32.9131Z" fill="#F5D43D"/>
<path d="M15.3087 5.34069e-06C16.5303 0.00262497 17.5107 0.982368 17.5107 2.20574C17.5107 3.47102 16.5146 4.48744 15.2851 4.4691C13.9821 4.45076 12.9912 3.45792 12.9991 2.18216C13.0096 0.958791 14.0267 -0.00261429 15.3087 5.34069e-06Z" fill="#070F1A"/>
<path d="M0.0332031 6.83203C0.607321 6.83203 1.17882 6.83203 1.73458 6.83203C1.83945 6.18498 1.90236 5.58246 2.03868 4.99567C2.53678 2.88424 3.86328 1.59276 6.0077 1.23911C7.77986 0.948333 8.73148 1.04526 10.2887 1.06098C10.2887 1.06098 10.273 3.9059 10.2546 5.06116C9.65165 5.06116 7.78248 4.94851 7.2372 5.21572C6.66833 5.4934 6.33277 6.13783 6.43239 6.80321C7.7117 6.80321 8.99626 6.80321 10.307 6.80321C10.307 8.07112 10.307 9.31544 10.307 10.5964C9.01461 10.5964 7.72481 10.5964 6.39831 10.5964C6.39831 13.6824 6.39831 16.7316 6.39831 19.7992C4.85684 19.7992 3.34946 19.7992 1.80799 19.7992C1.80799 16.7526 1.80799 13.7059 1.80799 10.6174C1.19455 10.6174 0.612564 10.6174 0.0332031 10.6174C0.0332031 9.35736 0.0332031 8.09469 0.0332031 6.83203Z" fill="#070F1A"/>
<path d="M43.6404 11.9508C43.373 9.54332 42.1147 7.83794 39.8496 6.91059C38.51 6.36047 37.1127 6.26092 35.6971 6.46787C33.8856 6.72983 32.3546 7.5262 31.2352 9.0063C30.0503 10.5755 29.7121 12.3568 29.9507 14.2796C30.2889 16.9962 32.2105 19.1364 34.8661 19.7442C37.2779 20.2969 39.5901 20.0009 41.8001 18.9059C42.1985 18.7094 42.5682 18.4605 42.9588 18.23C42.3401 17.1795 41.7529 16.1841 41.1709 15.1991C41.1211 15.207 41.1106 15.207 41.1027 15.2122C41.0241 15.2567 40.9481 15.3065 40.8694 15.3484C39.5036 16.0741 38.0722 16.4906 36.515 16.2103C35.6237 16.0505 34.9578 15.5632 34.5594 14.6778C37.582 14.6699 40.5601 14.6621 43.6614 14.6542C43.6587 13.719 43.7374 12.8257 43.6404 11.9508ZM34.52 11.5945C34.7612 10.6514 35.7574 9.98604 36.9187 9.9808C38.0696 9.97556 39.0212 10.6174 39.2808 11.584C37.6921 11.584 36.1087 11.5893 34.52 11.5945Z" fill="#070F1A"/>
</svg>